<svg width="135" height="37" viewBox="0 0 135 37" fill="none" xmlns="http://www.w3.org/2000/svg">
<path fill-rule="evenodd" clip-rule="evenodd" d="M123.594 0.000157231C124.639 0.0134675 125.479 0.869665 125.479 1.92126V5.15389C125.479 7.52606 127.4 9.44405 129.757 9.42618L132.111 9.40834C133.171 9.4003 134.035 10.2628 134.035 11.3295C134.035 12.3849 133.189 13.2427 132.14 13.2506L129.757 13.2687C127.389 13.2866 125.479 15.2232 125.479 17.6058V21.4758C125.479 22.5369 124.624 23.3971 123.57 23.3971C122.515 23.3971 121.661 22.5369 121.661 21.4758V18.3829C121.661 15.5987 119.406 13.3476 116.64 13.3689L106.67 13.4454C105.764 13.4525 105.033 14.1939 105.033 15.1056V17.8781C105.033 18.795 105.771 19.5383 106.683 19.5383H114.99C116.013 19.5383 116.843 20.3731 116.843 21.4028C116.843 22.4326 116.013 23.2674 114.99 23.2674H107.443C103.798 23.2674 100.844 20.2941 100.844 16.6264V6.72345C100.844 3.05577 103.798 0.0825365 107.443 0.0825365H114.781C115.795 0.0825365 116.617 0.910049 116.617 1.93084C116.617 2.95162 115.795 3.77914 114.781 3.77914H106.731C105.82 3.77914 105.081 4.52245 105.081 5.43936V7.94268C105.081 8.86455 105.828 9.60994 106.744 9.6029L116.982 9.52389C119.572 9.50391 121.661 7.38586 121.661 4.78V1.92126C121.661 0.850671 122.53 -0.0133935 123.594 0.000157231Z" fill="#08C00E"/>
<path d="M82.2295 22.6296C81.4758 22.437 80.9768 21.7433 80.9768 20.9689C80.9768 19.722 82.2327 18.8499 83.4547 19.1241C85.1233 19.4986 86.9235 19.6858 88.8555 19.6858C92.4111 19.6858 94.1889 18.5025 94.1889 16.1359C94.1889 14.4147 93.0974 13.5542 90.9143 13.5542H87.283C82.5385 13.5542 80.1663 11.4027 80.1663 7.0998C80.1663 2.3666 83.5436 0 90.2982 0C92.431 0 94.4725 0.254567 96.4226 0.763702C97.1753 0.960197 97.6743 1.65372 97.6743 2.42819C97.6743 3.67507 96.4199 4.54332 95.2 4.26014C93.6235 3.89422 91.9896 3.71126 90.2982 3.71126C86.4076 3.71126 84.4622 4.84077 84.4622 7.0998C84.4622 8.82096 85.4025 9.68154 87.283 9.68154H90.9143C95.9613 9.68154 98.4849 11.833 98.4849 16.1359C98.4849 20.9767 95.2751 23.3971 88.8555 23.3971C86.4412 23.3971 84.2325 23.1412 82.2295 22.6296Z" fill="white"/>
<path d="M62.8231 22.6296C62.0694 22.437 61.5704 21.7433 61.5704 20.9689C61.5704 19.722 62.8263 18.8499 64.0484 19.1241C65.7169 19.4986 67.5172 19.6858 69.4491 19.6858C73.0047 19.6858 74.7826 18.5025 74.7826 16.1359C74.7826 14.4147 73.691 13.5542 71.5079 13.5542H67.8766C63.1321 13.5542 60.7599 11.4027 60.7599 7.0998C60.7599 2.3666 64.1372 0 70.8919 0C73.0247 0 75.0661 0.254567 77.0163 0.763702C77.7689 0.960197 78.268 1.65372 78.268 2.42819C78.268 3.67507 77.0136 4.54332 75.7936 4.26014C74.2171 3.89422 72.5832 3.71126 70.8919 3.71126C67.0012 3.71126 65.0558 4.84077 65.0558 7.0998C65.0558 8.82096 65.9961 9.68154 67.8766 9.68154H71.5079C76.555 9.68154 79.0785 11.833 79.0785 16.1359C79.0785 20.9767 75.8687 23.3971 69.4491 23.3971C67.0348 23.3971 64.8261 23.1412 62.8231 22.6296Z" fill="white"/>
<path d="M57.2277 0.181641C58.2511 0.181641 59.0808 1.01025 59.0808 2.0324C59.0808 3.05455 58.2511 3.88316 57.2277 3.88316H48.7348C48.0206 3.88316 47.4416 4.46142 47.4416 5.17473V8.49744C47.4416 9.17688 47.9931 9.72767 48.6734 9.72767H56.6018C57.6657 9.72767 58.5281 10.589 58.5281 11.6515C58.5281 12.714 57.6657 13.5753 56.6018 13.5753H48.6301C47.9467 13.5753 47.3928 14.1285 47.3928 14.811V18.3411C47.3928 19.0714 47.9856 19.6633 48.7168 19.6633H57.439C58.4714 19.6633 59.3084 20.4992 59.3084 21.5303C59.3084 22.5614 58.4714 23.3973 57.439 23.3973H50.0843C46.2636 23.3973 43.1663 20.304 43.1663 16.4883V6.99328C43.1663 3.23131 46.2199 0.181641 49.9868 0.181641H57.2277Z" fill="white"/>
<path d="M40.4458 21.0585C40.4458 21.7862 39.9973 22.4466 39.2981 22.651C37.5967 23.1484 35.7175 23.3971 33.6604 23.3971C25.367 23.3971 21.2203 19.39 21.2203 11.3758C21.2203 3.79194 25.367 0 33.6604 0C35.7175 0 37.5967 0.248697 39.2981 0.74609C39.9973 0.950501 40.4458 1.61089 40.4458 2.33854C40.4458 3.59745 39.1444 4.45515 37.9186 4.16184C36.6633 3.86145 35.3516 3.71126 33.9835 3.71126C28.4366 3.71126 25.6632 6.26611 25.6632 11.3758C25.6632 16.9158 28.4366 19.6858 33.9835 19.6858C35.3516 19.6858 36.6633 19.5356 37.9186 19.2352C39.1444 18.9419 40.4458 19.7996 40.4458 21.0585Z" fill="white"/>
<path d="M3.87983 22.1374C3.57114 22.8992 2.83398 23.3973 2.01527 23.3973C0.573014 23.3973 -0.40136 21.9184 0.162177 20.5847L7.87939 2.32008C8.42718 1.02359 9.69338 0.181641 11.0954 0.181641C12.4876 0.181641 13.7469 1.01207 14.3007 2.29531L22.1329 20.4433C22.7352 21.8388 21.7169 23.3973 20.2029 23.3973H20.0441C19.2919 23.3973 18.6133 22.9434 18.3232 22.2461L18.1534 21.838C16.951 18.9476 14.1379 17.0658 11.0196 17.0658C9.80682 17.0658 8.97576 15.8376 9.42195 14.7046L9.49784 14.5119C9.77835 13.7997 10.4635 13.3318 11.2259 13.3318H11.4119C12.935 13.3318 13.9668 11.7736 13.3782 10.3623L13.2239 9.99234C12.3976 8.01101 9.59827 8.02531 8.79203 10.015L3.87983 22.1374Z" fill="#08C00E"/>
<path d="M4.34641 26.5711C4.34641 27.3637 4.51836 28.1547 4.85725 28.8997C5.19646 29.645 5.69992 30.3357 6.34911 30.9268C6.99891 31.5184 7.78061 31.997 8.65442 32.3265C9.5284 32.6562 10.4708 32.8284 11.4267 32.8284C12.3825 32.8284 13.3249 32.6562 14.1989 32.3265C15.0727 31.997 15.8544 31.5184 16.5042 30.9268C17.1534 30.3357 17.6569 29.645 17.9961 28.8997C18.335 28.1547 18.5069 27.3637 18.5069 26.5711C18.5069 25.4191 19.4392 24.4853 20.5893 24.4853C21.7394 24.4853 22.6718 25.4191 22.6718 26.5711C22.6718 27.9697 22.3688 29.3491 21.7867 30.6286C21.205 31.9074 20.3579 33.0566 19.3057 34.0147C18.254 34.9721 17.0155 35.722 15.6663 36.2309C14.3171 36.7397 12.8771 37 11.4267 37C9.9762 37 8.53618 36.7397 7.18696 36.2309C5.83785 35.722 4.59927 34.9721 3.5476 34.0147C2.49536 33.0566 1.64831 31.9074 1.06659 30.6286C0.484556 29.3491 0.181555 27.9697 0.181555 26.5711C0.181557 25.4191 1.11389 24.4853 2.26398 24.4853C3.41407 24.4853 4.34641 25.4191 4.34641 26.5711Z" fill="#08C00E"/>
</svg>
