<svg width="65" height="18" viewBox="0 0 65 18" fill="none" xmlns="http://www.w3.org/2000/svg">
<path fill-rule="evenodd" clip-rule="evenodd" d="M59.9368 7.6249e-05C60.4436 0.00653105 60.851 0.421743 60.851 0.931713V2.49937C60.851 3.64975 61.7824 4.57987 62.9255 4.57121L64.0672 4.56256C64.5813 4.55866 65.0001 4.97692 65.0001 5.49421C65.0001 6.00603 64.5898 6.42202 64.0811 6.42587L62.9255 6.43463C61.7773 6.44334 60.851 7.38246 60.851 8.53792V10.4147C60.851 10.9292 60.4365 11.3464 59.9251 11.3464C59.4138 11.3464 58.9992 10.9292 58.9992 10.4147V8.91475C58.9992 7.56455 57.9061 6.4729 56.5643 6.48321L51.7294 6.52033C51.2901 6.52379 50.9357 6.88333 50.9356 7.32546V8.66995C50.9356 9.11461 51.2938 9.47508 51.7357 9.47508H55.7644C56.2606 9.47508 56.663 9.8799 56.663 10.3793C56.663 10.8786 56.2606 11.2835 55.7644 11.2835H52.1045C50.3369 11.2835 48.9041 9.8416 48.9041 8.06296V3.26052C48.9041 1.48189 50.3369 0.0400259 52.1045 0.0400259H55.6628C56.1548 0.0400259 56.5536 0.441326 56.5536 0.936356C56.5536 1.43139 56.1548 1.83269 55.6628 1.83269H51.7591C51.3173 1.83269 50.959 2.19315 50.959 2.63781V3.85179C50.959 4.29885 51.3211 4.66032 51.7654 4.65691L56.7305 4.6186C57.9863 4.6089 58.9992 3.58176 58.9992 2.31805V0.931713C58.9992 0.412532 59.4209 -0.00649514 59.9368 7.6249e-05Z" fill="#08C00E"/>
<path d="M39.8779 10.9742C39.5124 10.8808 39.2704 10.5444 39.2704 10.1688C39.2704 9.56414 39.8794 9.14124 40.4721 9.27422C41.2812 9.4558 42.1543 9.54659 43.0911 9.54659C44.8154 9.54659 45.6776 8.97276 45.6776 7.82508C45.6776 6.9904 45.1482 6.57306 44.0895 6.57306H42.3286C40.0277 6.57306 38.8773 5.52972 38.8773 3.44303C38.8773 1.14768 40.5151 0 43.7908 0C44.8251 0 45.8151 0.123452 46.7608 0.370356C47.1258 0.465646 47.3678 0.801967 47.3678 1.17755C47.3678 1.78222 46.7595 2.20327 46.1679 2.06595C45.4034 1.8885 44.611 1.79977 43.7908 1.79977C41.904 1.79977 40.9606 2.34752 40.9606 3.44303C40.9606 4.27771 41.4166 4.69505 42.3286 4.69505H44.0895C46.5371 4.69505 47.7609 5.73839 47.7609 7.82508C47.7609 10.1726 46.2043 11.3464 43.0911 11.3464C41.9203 11.3464 40.8492 11.2223 39.8779 10.9742Z" fill="white"/>
<path d="M30.4669 10.9742C30.1014 10.8808 29.8594 10.5444 29.8594 10.1688C29.8594 9.56414 30.4684 9.14124 31.0611 9.27422C31.8702 9.4558 32.7432 9.54659 33.6801 9.54659C35.4044 9.54659 36.2666 8.97276 36.2666 7.82508C36.2666 6.9904 35.7372 6.57306 34.6785 6.57306H32.9175C30.6167 6.57306 29.4663 5.52972 29.4663 3.44303C29.4663 1.14768 31.1041 0 34.3798 0C35.4141 0 36.4041 0.123452 37.3498 0.370356C37.7148 0.465646 37.9568 0.801967 37.9568 1.17755C37.9568 1.78222 37.3485 2.20327 36.7569 2.06595C35.9924 1.8885 35.2 1.79977 34.3798 1.79977C32.493 1.79977 31.5496 2.34752 31.5496 3.44303C31.5496 4.27771 32.0056 4.69505 32.9175 4.69505H34.6785C37.1261 4.69505 38.3499 5.73839 38.3499 7.82508C38.3499 10.1726 36.7933 11.3464 33.6801 11.3464C32.5093 11.3464 31.4382 11.2223 30.4669 10.9742Z" fill="white"/>
<path d="M27.7533 0.0878906C28.2496 0.0878906 28.6519 0.489725 28.6519 0.985414C28.6519 1.4811 28.2496 1.88294 27.7533 1.88294H23.6347C23.2883 1.88294 23.0075 2.16336 23.0075 2.50928V4.12062C23.0075 4.45011 23.275 4.71722 23.6049 4.71722H27.4497C27.9657 4.71722 28.3839 5.13492 28.3839 5.65017C28.3839 6.16543 27.9657 6.58312 27.4497 6.58312H23.5839C23.2525 6.58312 22.9839 6.85141 22.9839 7.18235V8.89429C22.9839 9.24842 23.2713 9.5355 23.6259 9.5355H27.8557C28.3564 9.5355 28.7623 9.94086 28.7623 10.4409C28.7623 10.9409 28.3564 11.3463 27.8557 11.3463H24.2891C22.4362 11.3463 20.9342 9.84621 20.9342 7.99577V3.39118C20.9342 1.56682 22.4151 0.0878906 24.2418 0.0878906H27.7533Z" fill="white"/>
<path d="M19.6134 10.2123C19.6134 10.5652 19.3959 10.8854 19.0568 10.9845C18.2317 11.2258 17.3204 11.3464 16.3228 11.3464C12.301 11.3464 10.29 9.40313 10.29 5.51668C10.29 1.83889 12.301 0 16.3228 0C17.3204 0 18.2317 0.120605 19.0568 0.361815C19.3959 0.460944 19.6134 0.781199 19.6134 1.13407C19.6134 1.74457 18.9823 2.16052 18.3878 2.01827C17.7791 1.8726 17.143 1.79977 16.4795 1.79977C13.7896 1.79977 12.4446 3.03874 12.4446 5.51668C12.4446 8.20329 13.7896 9.54659 16.4795 9.54659C17.143 9.54659 17.7791 9.47376 18.3878 9.32809C18.9823 9.18584 19.6134 9.60179 19.6134 10.2123Z" fill="white"/>
<path d="M1.88152 10.7353C1.73182 11.1047 1.37433 11.3463 0.977303 11.3463C0.277882 11.3463 -0.194639 10.6291 0.0786475 9.9823L3.82109 1.12492C4.08675 0.49619 4.70078 0.0878906 5.38067 0.0878906C6.05583 0.0878906 6.66655 0.490605 6.93512 1.11291L10.7333 9.91377C11.0254 10.5905 10.5316 11.3463 9.79737 11.3463H9.72036C9.35558 11.3463 9.02649 11.1262 8.88582 10.788L8.80348 10.5901C8.22034 9.18841 6.85615 8.27582 5.34395 8.27582C4.7558 8.27582 4.35278 7.6802 4.56916 7.13078L4.60596 7.03733C4.74199 6.69192 5.07423 6.46503 5.44398 6.46503H5.53417C6.27281 6.46503 6.77319 5.70938 6.48774 5.02496L6.41292 4.84557C6.01219 3.88473 4.65466 3.89166 4.26368 4.85655L1.88152 10.7353Z" fill="#08C00E"/>
<path d="M2.10778 12.8859C2.10778 13.2702 2.19117 13.6538 2.35552 14.0151C2.52002 14.3766 2.76417 14.7115 3.07899 14.9982C3.39411 15.2851 3.7732 15.5171 4.19695 15.677C4.62078 15.8368 5.07778 15.9204 5.54134 15.9204C6.00489 15.9204 6.46189 15.8368 6.88573 15.677C7.30948 15.5171 7.68857 15.2851 8.00368 14.9982C8.31851 14.7115 8.56266 14.3766 8.72716 14.0151C8.8915 13.6538 8.97489 13.2702 8.97489 12.8859C8.97489 12.3272 9.42703 11.8744 9.98476 11.8744C10.5425 11.8744 10.9946 12.3272 10.9946 12.8859C10.9946 13.5642 10.8477 14.2331 10.5654 14.8536C10.2833 15.4737 9.87255 16.031 9.36227 16.4957C8.85226 16.96 8.25162 17.3236 7.59737 17.5704C6.94307 17.8171 6.24473 17.9434 5.54134 17.9434C4.83794 17.9434 4.13961 17.8171 3.48531 17.5704C2.83106 17.3236 2.23041 16.96 1.72041 16.4957C1.21012 16.031 0.799348 15.4737 0.517242 14.8536C0.234987 14.2331 0.0880475 13.5642 0.0880476 12.8859C0.0880483 12.3272 0.540181 11.8744 1.09792 11.8744C1.65565 11.8744 2.10778 12.3272 2.10778 12.8859Z" fill="#08C00E"/>
</svg>
