<svg width="254" height="70" viewBox="0 0 254 70" fill="none" xmlns="http://www.w3.org/2000/svg">
<path fill-rule="evenodd" clip-rule="evenodd" d="M233.826 0.000297464C235.803 0.0254791 237.392 1.64531 237.392 3.63482V9.7506C237.392 14.2385 241.025 17.8671 245.485 17.8333L249.939 17.7996C251.945 17.7844 253.578 19.4161 253.578 21.4342C253.578 23.4309 251.978 25.0537 249.994 25.0688L245.485 25.1029C241.006 25.1369 237.392 28.8006 237.392 33.3084V40.6299C237.392 42.6373 235.775 44.2647 233.78 44.2647C231.785 44.2647 230.168 42.6373 230.168 40.6299V34.7784C230.168 29.511 225.903 25.2523 220.669 25.2924L201.807 25.4373C200.093 25.4508 198.71 26.8534 198.71 28.5783V33.8234C198.71 35.5581 200.107 36.9644 201.831 36.9644H217.548C219.484 36.9644 221.054 38.5437 221.054 40.4919C221.054 42.44 219.484 44.0193 217.548 44.0193H203.27C196.374 44.0193 190.784 38.3943 190.784 31.4554V12.72C190.784 5.78119 196.374 0.15615 203.27 0.15615H217.152C219.071 0.15615 220.627 1.72171 220.627 3.65293C220.627 5.58415 219.071 7.14972 217.152 7.14972H201.923C200.199 7.14972 198.801 8.55598 198.801 10.2907V15.0267C198.801 16.7708 200.214 18.181 201.947 18.1677L221.317 18.0182C226.216 17.9804 230.168 13.9732 230.168 9.04324V3.63482C230.168 1.60938 231.813 -0.025339 233.826 0.000297464Z" fill="#08C00E"/>
<path d="M155.57 42.8127C154.144 42.4484 153.2 41.1361 153.2 39.6708C153.2 37.3119 155.576 35.662 157.888 36.1808C161.045 36.8892 164.451 37.2434 168.106 37.2434C174.833 37.2434 178.196 35.0047 178.196 30.5274C178.196 27.2711 176.131 25.643 172.001 25.643H165.131C156.155 25.643 151.667 21.5727 151.667 13.432C151.667 4.47735 158.056 0 170.835 0C174.87 0 178.733 0.481614 182.422 1.44484C183.846 1.81659 184.79 3.12865 184.79 4.59388C184.79 6.95283 182.417 8.59547 180.109 8.05973C177.126 7.36744 174.035 7.0213 170.835 7.0213C163.475 7.0213 159.794 9.15821 159.794 13.432C159.794 16.6883 161.573 18.3164 165.131 18.3164H172.001C181.549 18.3164 186.324 22.3867 186.324 30.5274C186.324 39.6856 180.251 44.2647 168.106 44.2647C163.538 44.2647 159.36 43.7807 155.57 42.8127Z" fill="white"/>
<path d="M118.854 42.8127C117.429 42.4484 116.485 41.1361 116.485 39.6708C116.485 37.3119 118.861 35.662 121.172 36.1808C124.329 36.8892 127.735 37.2434 131.39 37.2434C138.117 37.2434 141.48 35.0047 141.48 30.5274C141.48 27.2711 139.415 25.643 135.285 25.643H128.415C119.439 25.643 114.951 21.5727 114.951 13.432C114.951 4.47735 121.341 0 134.12 0C138.155 0 142.017 0.481614 145.706 1.44484C147.13 1.81659 148.074 3.12865 148.074 4.59388C148.074 6.95283 145.701 8.59547 143.393 8.05973C140.411 7.36744 137.32 7.0213 134.12 7.0213C126.759 7.0213 123.079 9.15821 123.079 13.432C123.079 16.6883 124.857 18.3164 128.415 18.3164H135.285C144.834 18.3164 149.608 22.3867 149.608 30.5274C149.608 39.6856 143.535 44.2647 131.39 44.2647C126.823 44.2647 122.644 43.7807 118.854 42.8127Z" fill="white"/>
<path d="M108.269 0.342773C110.206 0.342773 111.775 1.91042 111.775 3.84421C111.775 5.77801 110.206 7.34565 108.269 7.34565H92.2019C90.8506 7.34565 89.7552 8.43965 89.7552 9.78915V16.0754C89.7552 17.3608 90.7986 18.4028 92.0857 18.4028H107.085C109.098 18.4028 110.73 20.0324 110.73 22.0425C110.73 24.0526 109.098 25.6821 107.085 25.6821H92.0037C90.7109 25.6821 89.6629 26.7288 89.6629 28.0198V34.6985C89.6629 36.0801 90.7843 37.2 92.1677 37.2H108.669C110.622 37.2 112.206 38.7814 112.206 40.7322C112.206 42.6829 110.623 44.2643 108.669 44.2643H94.755C87.5266 44.2643 81.6667 38.4122 81.6667 31.1932V13.2297C81.6667 6.11243 87.4439 0.342773 94.5705 0.342773H108.269Z" fill="white"/>
<path d="M76.5196 39.8404C76.5196 41.2171 75.6711 42.4665 74.3483 42.8532C71.1294 43.7942 67.5741 44.2647 63.6823 44.2647C47.9922 44.2647 40.1471 36.6837 40.1471 21.5218C40.1471 7.17393 47.9922 0 63.6823 0C67.5741 0 71.1294 0.470507 74.3483 1.41152C75.6711 1.79824 76.5196 3.04763 76.5196 4.42426C76.5196 6.80598 74.0575 8.42866 71.7385 7.87374C69.3635 7.30545 66.8819 7.0213 64.2936 7.0213C53.7995 7.0213 48.5525 11.8548 48.5525 21.5218C48.5525 32.0029 53.7995 37.2434 64.2936 37.2434C66.8819 37.2434 69.3635 36.9593 71.7385 36.391C74.0575 35.836 76.5196 37.4587 76.5196 39.8404Z" fill="white"/>
<path d="M7.34021 41.8808C6.75621 43.322 5.36158 44.2643 3.81268 44.2643C1.08408 44.2643 -0.759329 41.4664 0.306821 38.9431L14.9069 4.38846C15.9433 1.93564 18.3388 0.342773 20.9912 0.342773C23.6252 0.342773 26.0077 1.91385 27.0555 4.34162L41.8731 38.6757C43.0125 41.3159 41.0861 44.2643 38.2217 44.2643H37.9213C36.4982 44.2643 35.2144 43.4055 34.6656 42.0864L34.3443 41.3142C32.0694 35.8459 26.7474 32.2857 20.8479 32.2857C18.5535 32.2857 16.9812 29.9621 17.8253 27.8187L17.9689 27.4541C18.4996 26.1066 19.7957 25.2214 21.2382 25.2214H21.59C24.4716 25.2214 26.4237 22.2734 25.3101 19.6034L25.0183 18.9036C23.4549 15.1551 18.1589 15.1821 16.6336 18.9464L7.34021 41.8808Z" fill="#08C00E"/>
<path d="M8.22264 50.2696C8.22264 51.7691 8.54795 53.2656 9.1891 54.675C9.83084 56.0852 10.7833 57.3918 12.0115 58.5101C13.2409 59.6294 14.7198 60.5348 16.3729 61.1583C18.0264 61.7819 19.8093 62.1078 21.6177 62.1078C23.4261 62.1078 25.209 61.7819 26.8625 61.1583C28.5156 60.5348 29.9945 59.6294 31.2239 58.5101C32.4521 57.3918 33.4046 56.0852 34.0463 54.675C34.6875 53.2656 35.0128 51.7691 35.0128 50.2696C35.0128 48.0903 36.7766 46.3235 38.9525 46.3235C41.1283 46.3235 42.8922 48.0903 42.8922 50.2696C42.8922 52.9157 42.319 55.5253 41.2178 57.946C40.1173 60.3653 38.5147 62.5395 36.524 64.3522C34.5344 66.1635 32.1911 67.5822 29.6387 68.5449C27.0862 69.5075 24.3618 70 21.6177 70C18.8736 70 16.1492 69.5075 13.5967 68.5449C11.0443 67.5822 8.70104 66.1635 6.71139 64.3522C4.72067 62.5395 3.11813 60.3653 2.01757 57.946C0.916436 55.5253 0.343191 52.9157 0.343192 50.2696C0.343194 48.0902 2.10707 46.3235 4.28292 46.3235C6.45877 46.3235 8.22264 48.0903 8.22264 50.2696Z" fill="#08C00E"/>
</svg>
