<svg width="25" height="25" viewBox="0 0 25 25" fill="none" xmlns="http://www.w3.org/2000/svg">
<path d="M4.16669 19.7913V17.708H6.25002V10.4163C6.25002 8.97537 6.68405 7.69499 7.5521 6.5752C8.42016 5.4554 9.54863 4.7219 10.9375 4.37467V3.64551C10.9375 3.21148 11.0894 2.84256 11.3932 2.53874C11.6971 2.23492 12.066 2.08301 12.5 2.08301C12.934 2.08301 13.303 2.23492 13.6068 2.53874C13.9106 2.84256 14.0625 3.21148 14.0625 3.64551V4.37467C15.4514 4.7219 16.5799 5.4554 17.4479 6.5752C18.316 7.69499 18.75 8.97537 18.75 10.4163V17.708H20.8334V19.7913H4.16669ZM12.5 22.9163C11.9271 22.9163 11.4367 22.7123 11.0287 22.3044C10.6207 21.8964 10.4167 21.4059 10.4167 20.833H14.5834C14.5834 21.4059 14.3794 21.8964 13.9714 22.3044C13.5634 22.7123 13.0729 22.9163 12.5 22.9163ZM8.33335 17.708H16.6667V10.4163C16.6667 9.27051 16.2587 8.28961 15.4427 7.47363C14.6268 6.65766 13.6459 6.24967 12.5 6.24967C11.3542 6.24967 10.3733 6.65766 9.55731 7.47363C8.74134 8.28961 8.33335 9.27051 8.33335 10.4163V17.708Z" fill="white"/>
</svg>
