<svg width="22" height="22" viewBox="0 0 22 22" fill="none" xmlns="http://www.w3.org/2000/svg">
<path d="M12.2948 10.4611C12.6538 10.1021 12.8333 9.67051 12.8333 9.16634C12.8333 8.66217 12.6538 8.23058 12.2948 7.87155C11.9357 7.51252 11.5041 7.33301 11 7.33301C10.4958 7.33301 10.0642 7.51252 9.70517 7.87155C9.34614 8.23058 9.16663 8.66217 9.16663 9.16634C9.16663 9.67051 9.34614 10.1021 9.70517 10.4611C10.0642 10.8202 10.4958 10.9997 11 10.9997C11.5041 10.9997 11.9357 10.8202 12.2948 10.4611ZM11 17.7372C12.8638 16.0261 14.2465 14.4715 15.1479 13.0736C16.0493 11.6757 16.5 10.4344 16.5 9.34967C16.5 7.6844 15.9691 6.32086 14.9073 5.25905C13.8454 4.19724 12.543 3.66634 11 3.66634C9.4569 3.66634 8.15447 4.19724 7.09267 5.25905C6.03086 6.32086 5.49996 7.6844 5.49996 9.34967C5.49996 10.4344 5.95065 11.6757 6.85204 13.0736C7.75343 14.4715 9.13607 16.0261 11 17.7372ZM11 20.1663C8.54024 18.0733 6.70308 16.1292 5.4885 14.334C4.27392 12.5389 3.66663 10.8775 3.66663 9.34967C3.66663 7.05801 4.40378 5.23231 5.87808 3.87259C7.35239 2.51287 9.05968 1.83301 11 1.83301C12.9402 1.83301 14.6475 2.51287 16.1218 3.87259C17.5961 5.23231 18.3333 7.05801 18.3333 9.34967C18.3333 10.8775 17.726 12.5389 16.5114 14.334C15.2968 16.1292 13.4597 18.0733 11 20.1663Z" fill="#257A0D"/>
</svg>
