<svg width="24" height="24" viewBox="0 0 24 24" fill="none" xmlns="http://www.w3.org/2000/svg">
<path d="M12.7005 16.6967L13.2406 13.2387L16.6758 12.8238L13.5511 11.1212L14.0214 7.59151L11.5861 9.96414L8.42555 8.29646L10.0103 11.4994L7.575 13.872L11.0799 13.5287L12.7005 16.6967ZM11.7672 23.1905C11.3733 23.5743 10.8994 23.7626 10.3456 23.7554C9.7917 23.7482 9.32287 23.5476 8.93906 23.1537L6.58388 20.7363C6.45595 20.605 6.38724 20.4508 6.37776 20.2739C6.36828 20.097 6.41757 19.9326 6.52562 19.7808C6.71908 19.4062 6.78621 19.0034 6.727 18.5724C6.6678 18.1415 6.487 17.7708 6.1846 17.4604C5.88221 17.15 5.51638 16.9596 5.0871 16.8892C4.65783 16.8188 4.25341 16.8754 3.87386 17.059C3.71929 17.1631 3.5537 17.2081 3.37709 17.194C3.20048 17.1799 3.04821 17.1072 2.92027 16.9759L0.565095 14.5585C0.181288 14.1646 -0.00700574 13.6907 0.000213537 13.1368C0.00743282 12.583 0.208015 12.1141 0.601959 11.7303L12.0622 0.565025C12.4561 0.181219 12.93 -0.00707541 13.4839 0.000143866C14.0377 0.00736314 14.5065 0.207945 14.8904 0.60189L17.2455 3.01928C17.3735 3.15059 17.4422 3.30471 17.4517 3.48162C17.4611 3.65854 17.4118 3.8229 17.3038 3.97471C17.1103 4.34935 17.0432 4.75214 17.1024 5.18311C17.1616 5.61407 17.3424 5.98475 17.6448 6.29513C17.9472 6.60551 18.313 6.79591 18.7423 6.86633C19.1716 6.93675 19.576 6.88014 19.9555 6.69651C20.1101 6.59245 20.2757 6.54746 20.4523 6.56155C20.6289 6.57564 20.7812 6.64834 20.9091 6.77966L23.2643 9.19704C23.6481 9.59099 23.8364 10.0649 23.8292 10.6187C23.822 11.1726 23.6214 11.6414 23.2275 12.0252L11.7672 23.1905ZM10.3716 21.758L21.8318 10.5927L20.0523 8.76623C19.3548 8.93393 18.6654 8.92495 17.9842 8.73928C17.303 8.55361 16.7124 8.20411 16.2123 7.69079C15.7122 7.17747 15.3782 6.57792 15.2103 5.89213C15.0425 5.20635 15.0515 4.51698 15.2373 3.82402L13.4578 1.99755L1.99762 13.1628L3.77709 14.9893C4.47466 14.8216 5.16403 14.8306 5.8452 15.0163C6.52637 15.2019 7.11702 15.5514 7.61713 16.0648C8.11724 16.5781 8.45122 17.1776 8.61908 17.8634C8.78693 18.5492 8.77794 19.2386 8.59212 19.9315L10.3716 21.758Z" fill="#257A0D"/>
</svg>
